<svg width="16" height="16" viewBox="0 0 16 16" fill="none" xmlns="http://www.w3.org/2000/svg">
<path d="M7.35483 14.5707C9.13146 14.5707 10.7632 13.9411 12.0373 12.8984L14.9934 15.8272C15.1087 15.9414 15.2595 16 15.4103 16C15.561 16 15.7118 15.9414 15.8271 15.8272C16.0576 15.5988 16.0576 15.2268 15.8271 14.9984L12.8828 12.0813C14.0179 10.7985 14.7067 9.12026 14.7067 7.28684C14.7067 3.26853 11.4077 0 7.35187 0C3.29607 0 0 3.2656 0 7.28391C0 11.3022 3.29903 14.5707 7.35483 14.5707ZM7.35483 1.16859C10.7573 1.16859 13.5272 3.90994 13.5272 7.28391C13.5272 10.6579 10.7573 13.3992 7.35483 13.3992C3.95233 13.3992 1.18245 10.655 1.18245 7.28391C1.18245 3.91287 3.95233 1.16859 7.35483 1.16859Z" fill="black"/>
</svg>
