<svg width="16" height="16" viewBox="0 0 16 16" fill="none" xmlns="http://www.w3.org/2000/svg">
<path d="M3.11172 16H12.8883C14.6041 16 16 14.7545 16 13.2234V4.92308C16 4.65231 15.7517 4.43077 15.4483 4.43077H12.1379V3.69231C12.1379 1.65662 10.2814 0 8 0C5.71862 0 3.86207 1.65662 3.86207 3.69231V4.43077H0.551724C0.248276 4.43077 0 4.65231 0 4.92308V13.2234C0 14.7545 1.39586 16 3.11172 16ZM4.96552 3.69231C4.96552 2.19815 6.32552 0.984615 8 0.984615C9.67448 0.984615 11.0345 2.19815 11.0345 3.69231V4.43077H4.96552V3.69231ZM1.10345 5.41538H3.86207V6.64615C3.86207 6.91692 4.11034 7.13846 4.41379 7.13846C4.71724 7.13846 4.96552 6.91692 4.96552 6.64615V5.41538H11.0345V6.64615C11.0345 6.91692 11.2828 7.13846 11.5862 7.13846C11.8897 7.13846 12.1379 6.91692 12.1379 6.64615V5.41538H14.8966V13.2234C14.8966 14.2105 13.9945 15.0154 12.8883 15.0154H3.11172C2.00552 15.0154 1.10345 14.2105 1.10345 13.2234V5.41538Z" fill="black"/>
</svg>
